<?xml version="1.0" encoding="utf-8"?><!--Generator: Adobe Illustrator 24.0.1, SVG Export Plug-In . SVG Version: 6.00 Build 0)--><svg version="1.1" id="圖層_1" xmlns="http://www.w3.org/2000/svg" xmlns:xlink="http://www.w3.org/1999/xlink" x="0px" y="0px" viewBox="0 0 100 100" enable-background="new 0 0 100 100" xml:space="preserve"><g><path fill="#E15B64" d="M88.24,13.99H11.76c-2.31,0-4.18,1.87-4.18,4.18v15.21h84.83V18.17C92.42,15.86,90.55,13.99,88.24,13.99z"/><circle fill="#C33737" cx="19.8" cy="23.95" r="3.5"/><line fill="#333333" stroke="#CCCCCC" stroke-width="4" stroke-linecap="round" stroke-miterlimit="10" x1="19.8" y1="10.03" x2="19.8" y2="23.95"/><circle fill="#C33737" cx="34.91" cy="23.95" r="3.5"/><line fill="#333333" stroke="#CCCCCC" stroke-width="4" stroke-linecap="round" stroke-miterlimit="10" x1="34.91" y1="10.03" x2="34.91" y2="23.95"/><circle fill="#C33737" cx="50.01" cy="23.95" r="3.5"/><line fill="#333333" stroke="#CCCCCC" stroke-width="4" stroke-linecap="round" stroke-miterlimit="10" x1="50.01" y1="10.03" x2="50.01" y2="23.95"/><circle fill="#C33737" cx="65.11" cy="23.95" r="3.5"/><line fill="#333333" stroke="#CCCCCC" stroke-width="4" stroke-linecap="round" stroke-miterlimit="10" x1="65.11" y1="10.03" x2="65.11" y2="23.95"/><circle fill="#C33737" cx="80.22" cy="23.95" r="3.5"/><line fill="#333333" stroke="#CCCCCC" stroke-width="4" stroke-linecap="round" stroke-miterlimit="10" x1="80.22" y1="10.03" x2="80.22" y2="23.95"/></g><g><path fill="#E0E0E0" d="M7.58,33.38v51.84c0,2.31,1.87,4.18,4.18,4.18h64.95h1.4l14.3-14.3v-1.4V33.38H7.58z"/><path fill="#B3B3B3" d="M92.42,73.69H81.27c-2.52,0-4.55,2.04-4.55,4.55V89.4h1.4l14.3-14.3V73.69z"/></g><path fill="#333333" d="M52.44,65.04l12.43,13.98l1.4-1.97l-8.19-19.56l4.93-6.8c1.41-2,2.74-7.94,0.74-9.35 c-2-1.41-6.56,2.24-7.97,4.24L51,52.48l-21.17-1.21l-1.4,1.97l17.32,7.07l-5.95,9.61c-0.09,0.13-0.16,0.26-0.23,0.39l-6.38,0.47 l-1.1,1.55l5.74,2.92l0.07,0.04c1.07,0.6,2.04,1.34,2.91,2.21h0l4.59,4.25l1.1-1.55l-1.64-5.82c0.16-0.18,0.32-0.36,0.47-0.56 L52.44,65.04z"/><metadata xmlns:d="https://loading.io/stock/">
<d:name>calendar</d:name>
<d:tags>calendar,schedule,plan,travel,holiday,work,business</d:tags>
<d:license>by</d:license>
<d:slug>guuvq</d:slug>
</metadata></svg>